STARTFONT 2.1
FONT -FontForge-Alagard-Medium-R-Normal--16-120-100-100-P-83-ISO10646-1
SIZE 12 100 100
FONTBOUNDINGBOX 13 14 -1 -2
COMMENT "Generated by fontforge, http://fontforge.sourceforge.net"
COMMENT "Pix3M"
STARTPROPERTIES 39
FOUNDRY "FontForge"
FAMILY_NAME "Alagard"
WEIGHT_NAME "Medium"
SLANT "R"
SETWIDTH_NAME "Normal"
ADD_STYLE_NAME ""
PIXEL_SIZE 16
POINT_SIZE 120
RESOLUTION_X 100
RESOLUTION_Y 100
SPACING "P"
AVERAGE_WIDTH 83
CHARSET_REGISTRY "ISO10646"
CHARSET_ENCODING "1"
FONTNAME_REGISTRY ""
CHARSET_COLLECTIONS "ISO10646-1"
FONT_NAME "Alagard"
FACE_NAME "Alagard"
COPYRIGHT "Pix3M"
FONT_VERSION "001.000"
FONT_ASCENT 12
FONT_DESCENT 4
UNDERLINE_POSITION -2
UNDERLINE_THICKNESS 1
X_HEIGHT 7
CAP_HEIGHT 10
RAW_ASCENT 750
RAW_DESCENT 250
NORM_SPACE 5
RELATIVE_WEIGHT 50
RELATIVE_SETWIDTH 50
SUPERSCRIPT_X 0
SUPERSCRIPT_Y 7
SUPERSCRIPT_SIZE 11
SUBSCRIPT_X 0
SUBSCRIPT_Y 2
SUBSCRIPT_SIZE 11
AVG_LOWERCASE_WIDTH 85
AVG_UPPERCASE_WIDTH 94
ENDPROPERTIES
CHARS 103
STARTCHAR space
ENCODING 32
SWIDTH 312 0
DWIDTH 5 0
BBX 1 1 0 0
BITMAP
00
ENDCHAR
STARTCHAR exclam
ENCODING 33
SWIDTH 312 0
DWIDTH 5 0
BBX 4 11 0 0
BITMAP
20
60
E0
60
60
60
70
60
00
70
60
ENDCHAR
STARTCHAR quotedbl
ENCODING 34
SWIDTH 500 0
DWIDTH 8 0
BBX 7 5 0 6
BITMAP
66
EE
66
66
44
ENDCHAR
STARTCHAR numbersign
ENCODING 35
SWIDTH 687 0
DWIDTH 11 0
BBX 10 10 0 0
BITMAP
1100
3300
3300
FFC0
3300
3300
FFC0
3300
3300
2200
ENDCHAR
STARTCHAR dollar
ENCODING 36
SWIDTH 562 0
DWIDTH 9 0
BBX 8 13 0 -1
BITMAP
08
3E
4F
CB
C8
FC
7E
17
13
D3
F2
7C
10
ENDCHAR
STARTCHAR percent
ENCODING 37
SWIDTH 812 0
DWIDTH 13 0
BBX 12 11 0 0
BITMAP
3000
5820
CC40
CC80
6900
3200
04C0
0960
1330
2330
41B0
ENDCHAR
STARTCHAR ampersand
ENCODING 38
SWIDTH 750 0
DWIDTH 12 0
BBX 11 11 0 0
BITMAP
7800
CC00
C600
C600
64E0
38C0
7880
CD00
C600
C720
79C0
ENDCHAR
STARTCHAR quotesingle
ENCODING 39
SWIDTH 250 0
DWIDTH 4 0
BBX 3 5 0 6
BITMAP
60
E0
60
60
40
ENDCHAR
STARTCHAR parenleft
ENCODING 40
SWIDTH 437 0
DWIDTH 7 0
BBX 6 13 0 -2
BITMAP
18
3C
6C
C0
C0
C0
C0
C0
C0
C0
E0
78
30
ENDCHAR
STARTCHAR parenright
ENCODING 41
SWIDTH 500 0
DWIDTH 8 0
BBX 6 13 1 -2
BITMAP
20
70
B8
1C
0C
0C
0C
0C
0C
0C
0C
10
20
ENDCHAR
STARTCHAR asterisk
ENCODING 42
SWIDTH 437 0
DWIDTH 7 0
BBX 6 6 0 5
BITMAP
20
30
FC
70
D8
88
ENDCHAR
STARTCHAR plus
ENCODING 43
SWIDTH 687 0
DWIDTH 11 0
BBX 10 10 0 0
BITMAP
0400
0C00
1C00
0C00
0C00
FFC0
0C00
0C00
0E00
0C00
ENDCHAR
STARTCHAR comma
ENCODING 44
SWIDTH 250 0
DWIDTH 4 0
BBX 3 4 0 -2
BITMAP
60
E0
40
80
ENDCHAR
STARTCHAR hyphen
ENCODING 45
SWIDTH 437 0
DWIDTH 7 0
BBX 6 1 0 3
BITMAP
FC
ENDCHAR
STARTCHAR period
ENCODING 46
SWIDTH 250 0
DWIDTH 4 0
BBX 2 2 1 0
BITMAP
C0
C0
ENDCHAR
STARTCHAR slash
ENCODING 47
SWIDTH 750 0
DWIDTH 12 0
BBX 10 10 1 0
BITMAP
0040
0080
0100
0200
0400
0800
1000
2000
4000
8000
ENDCHAR
STARTCHAR zero
ENCODING 48
SWIDTH 500 0
DWIDTH 8 0
BBX 7 11 0 0
BITMAP
38
5C
CE
C6
CE
D6
E6
C6
E6
74
38
ENDCHAR
STARTCHAR one
ENCODING 49
SWIDTH 312 0
DWIDTH 5 0
BBX 4 11 0 0
BITMAP
20
60
E0
60
60
60
60
60
60
60
F0
ENDCHAR
STARTCHAR two
ENCODING 50
SWIDTH 437 0
DWIDTH 7 0
BBX 6 11 0 0
BITMAP
78
DC
8C
0C
08
10
20
40
C0
FC
F8
ENDCHAR
STARTCHAR three
ENCODING 51
SWIDTH 500 0
DWIDTH 8 0
BBX 7 11 0 0
BITMAP
38
7C
8E
06
04
1C
0E
06
C6
E4
78
ENDCHAR
STARTCHAR four
ENCODING 52
SWIDTH 625 0
DWIDTH 10 0
BBX 9 11 0 0
BITMAP
0600
0E00
1600
2600
4600
C600
FF80
FF00
0600
0600
0600
ENDCHAR
STARTCHAR five
ENCODING 53
SWIDTH 500 0
DWIDTH 8 0
BBX 7 11 0 0
BITMAP
FE
C0
C0
D8
FC
CE
86
06
C6
E4
78
ENDCHAR
STARTCHAR six
ENCODING 54
SWIDTH 562 0
DWIDTH 9 0
BBX 8 11 0 0
BITMAP
1E
27
43
C0
DC
EE
C7
C3
E3
72
3C
ENDCHAR
STARTCHAR seven
ENCODING 55
SWIDTH 562 0
DWIDTH 9 0
BBX 8 11 0 0
BITMAP
3F
7F
82
04
08
18
18
18
18
1C
18
ENDCHAR
STARTCHAR eight
ENCODING 56
SWIDTH 562 0
DWIDTH 9 0
BBX 8 11 0 0
BITMAP
3E
47
C3
E3
72
3C
4E
C7
E3
72
3C
ENDCHAR
STARTCHAR nine
ENCODING 57
SWIDTH 562 0
DWIDTH 9 0
BBX 8 11 0 0
BITMAP
3C
4E
C7
C3
E3
73
3F
03
C2
E4
78
ENDCHAR
STARTCHAR colon
ENCODING 58
SWIDTH 250 0
DWIDTH 4 0
BBX 2 7 1 0
BITMAP
C0
C0
00
00
00
C0
C0
ENDCHAR
STARTCHAR semicolon
ENCODING 59
SWIDTH 250 0
DWIDTH 4 0
BBX 3 9 0 -2
BITMAP
60
60
00
00
00
60
E0
40
80
ENDCHAR
STARTCHAR less
ENCODING 60
SWIDTH 375 0
DWIDTH 6 0
BBX 5 9 0 0
BITMAP
08
10
20
40
80
C0
60
30
18
ENDCHAR
STARTCHAR equal
ENCODING 61
SWIDTH 562 0
DWIDTH 9 0
BBX 7 4 1 2
BITMAP
FE
00
00
FE
ENDCHAR
STARTCHAR greater
ENCODING 62
SWIDTH 437 0
DWIDTH 7 0
BBX 5 9 1 0
BITMAP
C0
60
30
18
08
10
20
40
80
ENDCHAR
STARTCHAR question
ENCODING 63
SWIDTH 500 0
DWIDTH 8 0
BBX 7 10 0 0
BITMAP
38
5C
8E
06
04
08
10
00
30
30
ENDCHAR
STARTCHAR at
ENCODING 64
SWIDTH 812 0
DWIDTH 13 0
BBX 12 12 0 -2
BITMAP
1FC0
20E0
4670
CF30
D1B0
C7B0
C9B0
D9A0
D9C0
EF90
7020
3FC0
ENDCHAR
STARTCHAR A
ENCODING 65
SWIDTH 562 0
DWIDTH 9 0
BBX 8 11 0 0
BITMAP
18
3C
4E
C6
C6
CE
D6
E6
C6
E7
C6
ENDCHAR
STARTCHAR B
ENCODING 66
SWIDTH 562 0
DWIDTH 9 0
BBX 8 11 0 0
BITMAP
3C
6E
E7
62
64
6E
67
63
63
E2
7C
ENDCHAR
STARTCHAR C
ENCODING 67
SWIDTH 562 0
DWIDTH 9 0
BBX 8 11 0 0
BITMAP
1D
2F
47
C0
C0
C0
C0
C0
E1
72
3C
ENDCHAR
STARTCHAR D
ENCODING 68
SWIDTH 625 0
DWIDTH 10 0
BBX 9 11 0 0
BITMAP
3E00
6700
E380
6180
6180
6180
6180
6100
6200
6400
7800
ENDCHAR
STARTCHAR E
ENCODING 69
SWIDTH 625 0
DWIDTH 10 0
BBX 9 11 0 0
BITMAP
2E80
7780
E300
6000
6000
7C00
6000
6000
6000
7100
3E00
ENDCHAR
STARTCHAR F
ENCODING 70
SWIDTH 625 0
DWIDTH 10 0
BBX 9 11 0 0
BITMAP
2E80
7780
E300
6000
6000
7C00
6000
6000
6000
7000
6000
ENDCHAR
STARTCHAR G
ENCODING 71
SWIDTH 562 0
DWIDTH 9 0
BBX 8 11 0 0
BITMAP
1E
27
43
C0
C0
C0
C7
C3
E3
72
3C
ENDCHAR
STARTCHAR H
ENCODING 72
SWIDTH 625 0
DWIDTH 10 0
BBX 9 11 0 0
BITMAP
2100
6300
E300
6300
6300
7F00
6300
6300
6300
6380
6300
ENDCHAR
STARTCHAR I
ENCODING 73
SWIDTH 312 0
DWIDTH 5 0
BBX 4 11 0 0
BITMAP
20
60
E0
60
60
60
60
60
60
70
60
ENDCHAR
STARTCHAR J
ENCODING 74
SWIDTH 250 0
DWIDTH 4 0
BBX 3 12 0 -1
BITMAP
20
60
E0
60
60
60
60
60
60
60
60
80
ENDCHAR
STARTCHAR K
ENCODING 75
SWIDTH 625 0
DWIDTH 10 0
BBX 9 11 0 0
BITMAP
2100
6300
E300
6600
6C00
7E00
7700
6300
6300
7380
6300
ENDCHAR
STARTCHAR L
ENCODING 76
SWIDTH 500 0
DWIDTH 8 0
BBX 7 11 0 0
BITMAP
20
60
E0
60
60
60
60
60
60
62
7C
ENDCHAR
STARTCHAR M
ENCODING 77
SWIDTH 812 0
DWIDTH 13 0
BBX 12 11 0 0
BITMAP
2660
6EE0
F760
6660
6660
6660
6660
6660
6660
7770
6660
ENDCHAR
STARTCHAR N
ENCODING 78
SWIDTH 687 0
DWIDTH 11 0
BBX 10 11 0 0
BITMAP
2080
6180
E180
7180
6980
6580
6380
6180
6180
71C0
6180
ENDCHAR
STARTCHAR O
ENCODING 79
SWIDTH 562 0
DWIDTH 9 0
BBX 8 11 0 0
BITMAP
1C
2E
47
C3
C3
C3
C3
C3
E2
74
38
ENDCHAR
STARTCHAR P
ENCODING 80
SWIDTH 562 0
DWIDTH 9 0
BBX 8 11 0 0
BITMAP
2E
77
E3
63
63
62
7C
78
60
70
60
ENDCHAR
STARTCHAR Q
ENCODING 81
SWIDTH 625 0
DWIDTH 10 0
BBX 10 12 0 -1
BITMAP
1C00
2E00
4700
C300
C300
C300
C300
C300
E200
7400
3EC0
0200
ENDCHAR
STARTCHAR R
ENCODING 82
SWIDTH 625 0
DWIDTH 10 0
BBX 9 11 0 0
BITMAP
2E00
7700
E300
6200
6600
6F00
7300
6300
6300
7380
6300
ENDCHAR
STARTCHAR S
ENCODING 83
SWIDTH 562 0
DWIDTH 9 0
BBX 8 11 0 0
BITMAP
1C
2F
46
C0
FC
7E
07
03
C2
E4
78
ENDCHAR
STARTCHAR T
ENCODING 84
SWIDTH 625 0
DWIDTH 10 0
BBX 9 11 0 0
BITMAP
3E80
4B80
9980
1800
1800
1800
1800
1800
1880
1D00
0E00
ENDCHAR
STARTCHAR U
ENCODING 85
SWIDTH 687 0
DWIDTH 11 0
BBX 10 11 0 0
BITMAP
2080
6180
E380
6180
6180
6180
6180
6180
6180
71C0
3F80
ENDCHAR
STARTCHAR V
ENCODING 86
SWIDTH 625 0
DWIDTH 10 0
BBX 9 11 0 0
BITMAP
2080
6180
E180
6180
6180
6180
6180
7180
3900
1E00
0C00
ENDCHAR
STARTCHAR W
ENCODING 87
SWIDTH 750 0
DWIDTH 12 0
BBX 11 11 0 0
BITMAP
2020
6060
E060
6260
6660
6660
6660
6660
7640
3E80
1700
ENDCHAR
STARTCHAR X
ENCODING 88
SWIDTH 625 0
DWIDTH 10 0
BBX 9 11 0 0
BITMAP
2100
6300
E300
7300
3A00
1C00
2E00
6700
6300
E380
6300
ENDCHAR
STARTCHAR Y
ENCODING 89
SWIDTH 625 0
DWIDTH 10 0
BBX 9 11 0 0
BITMAP
2080
6180
E180
6180
7100
3A00
1C00
0C00
0C00
0E00
0C00
ENDCHAR
STARTCHAR Z
ENCODING 90
SWIDTH 562 0
DWIDTH 9 0
BBX 8 11 0 0
BITMAP
3E
7F
82
04
08
7C
20
40
C1
FE
7C
ENDCHAR
STARTCHAR bracketleft
ENCODING 91
SWIDTH 375 0
DWIDTH 6 0
BBX 4 12 1 -1
BITMAP
F0
C0
C0
C0
C0
C0
C0
C0
C0
C0
C0
F0
ENDCHAR
STARTCHAR backslash
ENCODING 92
SWIDTH 687 0
DWIDTH 11 0
BBX 10 10 0 0
BITMAP
C000
E000
7000
3800
1C00
0E00
0700
0380
01C0
00C0
ENDCHAR
STARTCHAR bracketright
ENCODING 93
SWIDTH 312 0
DWIDTH 5 0
BBX 4 12 0 -1
BITMAP
F0
30
30
30
30
30
30
30
30
30
30
F0
ENDCHAR
STARTCHAR asciicircum
ENCODING 94
SWIDTH 562 0
DWIDTH 9 0
BBX 8 5 0 6
BITMAP
08
1C
2E
47
83
ENDCHAR
STARTCHAR underscore
ENCODING 95
SWIDTH 625 0
DWIDTH 10 0
BBX 10 1 -1 0
BITMAP
FFC0
ENDCHAR
STARTCHAR grave
ENCODING 96
SWIDTH 375 0
DWIDTH 6 0
BBX 3 3 2 8
BITMAP
C0
E0
60
ENDCHAR
STARTCHAR a
ENCODING 97
SWIDTH 500 0
DWIDTH 8 0
BBX 7 8 0 0
BITMAP
38
7C
8C
3C
4C
CC
CE
7C
ENDCHAR
STARTCHAR b
ENCODING 98
SWIDTH 562 0
DWIDTH 9 0
BBX 8 11 0 0
BITMAP
20
60
E0
66
6F
73
63
63
63
62
7C
ENDCHAR
STARTCHAR c
ENCODING 99
SWIDTH 500 0
DWIDTH 8 0
BBX 7 8 0 0
BITMAP
3A
4E
C6
C0
C0
E0
72
3C
ENDCHAR
STARTCHAR d
ENCODING 100
SWIDTH 562 0
DWIDTH 9 0
BBX 8 11 0 0
BITMAP
06
0E
06
76
DE
CE
C6
C6
E6
7F
36
ENDCHAR
STARTCHAR e
ENCODING 101
SWIDTH 500 0
DWIDTH 8 0
BBX 7 8 0 0
BITMAP
3C
4E
C4
C8
D0
E0
E2
7C
ENDCHAR
STARTCHAR f
ENCODING 102
SWIDTH 500 0
DWIDTH 8 0
BBX 7 11 0 0
BITMAP
1A
2E
66
60
60
F8
60
60
60
70
60
ENDCHAR
STARTCHAR g
ENCODING 103
SWIDTH 562 0
DWIDTH 9 0
BBX 8 10 0 -2
BITMAP
36
5F
CE
C6
C6
C6
6E
F6
E4
78
ENDCHAR
STARTCHAR h
ENCODING 104
SWIDTH 625 0
DWIDTH 10 0
BBX 9 11 0 0
BITMAP
2000
6000
E000
6600
6F00
7300
6300
6300
6300
6380
6300
ENDCHAR
STARTCHAR i
ENCODING 105
SWIDTH 312 0
DWIDTH 5 0
BBX 4 11 0 0
BITMAP
20
60
40
00
20
60
E0
60
60
70
60
ENDCHAR
STARTCHAR j
ENCODING 106
SWIDTH 250 0
DWIDTH 4 0
BBX 3 13 0 -2
BITMAP
20
60
40
00
20
60
E0
60
60
60
60
40
80
ENDCHAR
STARTCHAR k
ENCODING 107
SWIDTH 625 0
DWIDTH 10 0
BBX 9 11 0 0
BITMAP
2000
6000
E600
6600
6C00
7E00
7700
6300
6300
7380
6300
ENDCHAR
STARTCHAR l
ENCODING 108
SWIDTH 312 0
DWIDTH 5 0
BBX 4 11 0 0
BITMAP
20
60
E0
60
60
60
60
60
60
70
60
ENDCHAR
STARTCHAR m
ENCODING 109
SWIDTH 812 0
DWIDTH 13 0
BBX 12 8 0 0
BITMAP
2660
6EE0
F760
6660
6660
6660
6670
6660
ENDCHAR
STARTCHAR n
ENCODING 110
SWIDTH 625 0
DWIDTH 10 0
BBX 9 8 0 0
BITMAP
2700
6B00
F300
6300
6300
6300
7380
6300
ENDCHAR
STARTCHAR o
ENCODING 111
SWIDTH 500 0
DWIDTH 8 0
BBX 7 8 0 0
BITMAP
38
5C
CE
C6
C6
E6
74
38
ENDCHAR
STARTCHAR p
ENCODING 112
SWIDTH 562 0
DWIDTH 9 0
BBX 8 10 0 -2
BITMAP
1C
2E
67
E3
63
73
7A
6C
70
60
ENDCHAR
STARTCHAR q
ENCODING 113
SWIDTH 562 0
DWIDTH 9 0
BBX 8 10 0 -2
BITMAP
36
5E
CE
C6
C6
E6
7E
36
07
06
ENDCHAR
STARTCHAR r
ENCODING 114
SWIDTH 500 0
DWIDTH 8 0
BBX 7 8 0 0
BITMAP
24
6E
F6
60
60
60
70
60
ENDCHAR
STARTCHAR s
ENCODING 115
SWIDTH 437 0
DWIDTH 7 0
BBX 6 8 0 0
BITMAP
78
CC
E0
70
38
9C
CC
78
ENDCHAR
STARTCHAR t
ENCODING 116
SWIDTH 375 0
DWIDTH 6 0
BBX 5 11 0 0
BITMAP
20
60
E0
60
F8
60
60
60
68
70
60
ENDCHAR
STARTCHAR u
ENCODING 117
SWIDTH 625 0
DWIDTH 10 0
BBX 9 8 0 0
BITMAP
2100
6300
E300
6300
6300
6700
7B80
3300
ENDCHAR
STARTCHAR v
ENCODING 118
SWIDTH 562 0
DWIDTH 9 0
BBX 8 8 0 0
BITMAP
21
63
E3
63
63
72
3C
18
ENDCHAR
STARTCHAR w
ENCODING 119
SWIDTH 750 0
DWIDTH 12 0
BBX 11 8 0 0
BITMAP
2020
6060
E260
6660
6660
7660
3F40
1F80
ENDCHAR
STARTCHAR x
ENCODING 120
SWIDTH 687 0
DWIDTH 11 0
BBX 10 8 0 0
BITMAP
6100
F380
3D80
1C00
0E00
CF00
F3C0
6180
ENDCHAR
STARTCHAR y
ENCODING 121
SWIDTH 500 0
DWIDTH 8 0
BBX 7 10 0 -2
BITMAP
22
66
E6
66
66
6E
76
A6
C8
70
ENDCHAR
STARTCHAR z
ENCODING 122
SWIDTH 500 0
DWIDTH 8 0
BBX 7 8 0 0
BITMAP
3E
7C
88
10
20
42
FC
F8
ENDCHAR
STARTCHAR braceleft
ENCODING 123
SWIDTH 312 0
DWIDTH 5 0
BBX 4 12 0 -2
BITMAP
10
20
60
60
60
60
C0
60
60
60
70
30
ENDCHAR
STARTCHAR bar
ENCODING 124
SWIDTH 312 0
DWIDTH 5 0
BBX 2 13 2 -2
BITMAP
40
C0
C0
C0
C0
C0
C0
C0
C0
C0
C0
C0
80
ENDCHAR
STARTCHAR braceright
ENCODING 125
SWIDTH 312 0
DWIDTH 5 0
BBX 4 12 0 -2
BITMAP
C0
E0
60
60
60
60
30
60
60
60
40
80
ENDCHAR
STARTCHAR asciitilde
ENCODING 126
SWIDTH 562 0
DWIDTH 9 0
BBX 8 4 0 2
BITMAP
30
79
9E
0C
ENDCHAR
STARTCHAR cent
ENCODING 162
SWIDTH 500 0
DWIDTH 8 0
BBX 7 11 0 -1
BITMAP
08
08
3A
4E
D6
D0
D0
E0
72
3C
20
ENDCHAR
STARTCHAR sterling
ENCODING 163
SWIDTH 500 0
DWIDTH 8 0
BBX 7 10 0 0
BITMAP
7A
CE
C6
C0
60
F8
60
60
F2
CC
ENDCHAR
STARTCHAR yen
ENCODING 165
SWIDTH 625 0
DWIDTH 10 0
BBX 9 11 0 0
BITMAP
2080
6180
E180
6180
7100
3A00
7F80
0C00
3F00
0C00
0C00
ENDCHAR
STARTCHAR Euro
ENCODING 8364
SWIDTH 625 0
DWIDTH 10 0
BBX 9 11 0 0
BITMAP
0E80
1780
2380
6000
FC00
6000
FC00
6000
7080
3900
1E00
ENDCHAR
STARTCHAR uni3000
ENCODING 12288
SWIDTH 1000 0
DWIDTH 16 0
BBX 1 1 0 0
BITMAP
00
ENDCHAR
STARTCHAR .notdef
ENCODING -1
SWIDTH 365 0
DWIDTH 6 0
BBX 5 11 1 0
BITMAP
88
88
88
88
88
88
88
88
88
88
78
ENDCHAR
STARTCHAR .null
ENCODING -1
SWIDTH 0 0
DWIDTH 0 0
BBX 1 1 0 0
BITMAP
00
ENDCHAR
STARTCHAR nonmarkingreturn
ENCODING -1
SWIDTH 333 0
DWIDTH 5 0
BBX 1 1 0 0
BITMAP
00
ENDCHAR
ENDFONT
